<svg width="1496" height="488" viewBox="0 0 1496 488" fill="none" xmlns="http://www.w3.org/2000/svg">
<rect width="1496" height="488" fill="#1E1E1E"/>
<ellipse cx="748" cy="244" rx="748" ry="244" fill="white"/>
<path d="M250.4 320.6C233.6 320.6 221.467 317 214 309.8C206.8 302.6 203.2 294.6 203.2 285.8C203.2 276.733 206.8 268.333 214 260.6C221.2 252.867 230.933 249 243.2 249C246.933 249 250.8 249.4 254.8 250.2C257.2 250.467 258.933 251.4 260 253C261.333 254.6 262 256.2 262 257.8C262 259.4 261.333 260.733 260 261.8C258.667 262.867 256.8 263.133 254.4 262.6C253.067 262.067 251.733 261.8 250.4 261.8C249.067 261.8 247.733 261.8 246.4 261.8C238.133 261.8 231.333 264.333 226 269.4C220.933 274.467 218.4 279.933 218.4 285.8C218.4 291.133 220.8 295.8 225.6 299.8C230.667 304.067 238.933 306.2 250.4 306.2C265.6 306.2 279.333 303.267 291.6 297.4C304.133 291.533 315.467 283.8 325.6 274.2C335.733 264.6 345.067 254.2 353.6 243C362.4 231.533 370.667 220.467 378.4 209.8C389.6 194.067 401.2 177.8 413.2 161C425.2 143.933 437.2 127.667 449.2 112.2C461.2 96.7333 473.2 83.4 485.2 72.2C478.267 70.6 470.8 69.4 462.8 68.6C454.8 67.8 446.133 67.4 436.8 67.4C408.533 67.4 383.733 70.0667 362.4 75.4C341.333 80.4667 323.333 87.1333 308.4 95.4C293.733 103.667 282.133 112.6 273.6 122.2C265.067 131.8 259.333 141 256.4 149.8C254.533 155.667 253.6 161.533 253.6 167.4C253.6 176.467 256.267 183.267 261.6 187.8C267.2 192.333 274.4 194.6 283.2 194.6C292 194.6 302.133 192.2 313.6 187.4C325.333 182.333 337.2 174.467 349.2 163.8C361.2 152.867 372.133 138.733 382 121.4C383.6 118.733 385.6 117.4 388 117.4C392 117.4 394 119.4 394 123.4C394 124.733 393.6 126.2 392.8 127.8C382.133 146.467 370.267 161.8 357.2 173.8C344.4 185.8 331.467 194.733 318.4 200.6C305.6 206.2 293.6 209 282.4 209C269.867 209 259.467 205.533 251.2 198.6C242.933 191.4 238.8 181.267 238.8 168.2C238.8 161 240.133 153.4 242.8 145.4C246.267 134.467 252.933 123.533 262.8 112.6C272.667 101.667 285.6 91.8 301.6 83C317.867 73.9333 337.2 66.7333 359.6 61.4C382.267 55.8 408 53 436.8 53C448.8 53 459.867 53.6667 470 55C480.4 56.3333 489.733 58.2 498 60.6C505.467 54.2 512.8 49.2667 520 45.8C527.467 42.3333 534.667 40.6 541.6 40.6C544.267 40.6 546.4 41.4 548 43C549.6 44.6 550.4 46.2 550.4 47.8C550.4 51 548.4 52.6 544.4 52.6C535.867 52.6 525.733 57.1333 514 66.2C529.733 72.8667 541.2 81.5333 548.4 92.2C555.867 102.6 559.6 113.8 559.6 125.8C559.6 137.8 556 149.933 548.8 162.2C541.867 174.467 531.733 185.8 518.4 196.2C505.333 206.333 489.467 214.467 470.8 220.6C452.133 226.733 431.333 229.8 408.4 229.8C404.133 229.8 399.867 229.667 395.6 229.4C391.333 229.133 387.333 228.733 383.6 228.2C371.6 244.467 359.2 259.667 346.4 273.8C333.6 287.667 319.333 298.867 303.6 307.4C288.133 316.2 270.4 320.6 250.4 320.6ZM396.4 210.6C395.867 211.4 395.333 212.2 394.8 213C394.267 213.533 393.733 214.2 393.2 215C398 215.267 402.667 215.4 407.2 215.4C427.733 215.4 446.4 212.733 463.2 207.4C480.267 202.067 494.933 195 507.2 186.2C519.467 177.4 528.8 167.8 535.2 157.4C541.867 147 545.2 136.6 545.2 126.2C545.2 116.067 541.6 106.6 534.4 97.8C527.467 89 516.533 81.9333 501.6 76.6C488 88.8667 475.2 102.6 463.2 117.8C451.467 132.733 440 148.2 428.8 164.2C417.867 180.2 407.067 195.667 396.4 210.6ZM630.038 166.6C626.838 166.6 623.904 165.533 621.238 163.4C618.838 161 617.638 158.067 617.638 154.6C617.638 150.867 618.838 147.8 621.238 145.4C623.638 143 626.571 141.8 630.038 141.8C633.771 141.8 636.838 143 639.238 145.4C641.638 147.8 642.838 150.867 642.838 154.6C642.838 158.067 641.504 161 638.838 163.4C636.438 165.533 633.504 166.6 630.038 166.6ZM570.838 286.6C567.371 286.6 564.571 285.667 562.438 283.8C560.304 281.667 559.238 278.333 559.238 273.8C559.238 268.2 560.571 261.4 563.238 253.4C565.904 245.133 569.371 236.733 573.638 228.2C577.904 219.4 582.438 211.4 587.238 204.2C592.304 196.733 597.104 190.867 601.638 186.6C603.504 184.733 605.771 183.8 608.438 183.8C610.571 183.8 612.438 184.333 614.038 185.4C615.638 186.467 616.438 187.8 616.438 189.4C616.438 190.733 615.771 192.067 614.438 193.4C612.571 195.267 610.171 198.333 607.238 202.6C604.571 206.6 601.904 210.867 599.238 215.4C596.571 219.667 594.571 223.267 593.238 226.2C590.838 231.267 588.171 237 585.237 243.4C582.304 249.8 580.171 255 578.838 259C578.038 261.667 577.638 263.667 577.638 265C577.638 267.933 578.704 269.4 580.838 269.4C582.704 269.4 584.838 268.6 587.238 267C589.638 265.133 591.771 263.533 593.638 262.2C600.304 256.867 606.438 251.267 612.038 245.4C617.904 239.267 623.238 233.533 628.038 228.2C629.104 226.867 630.438 226.2 632.037 226.2C633.371 226.2 634.571 227 635.638 228.6C636.971 229.933 637.638 231.667 637.638 233.8C637.638 236.2 636.971 238.2 635.638 239.8C631.638 245.4 626.038 251.667 618.838 258.6C611.904 265.267 605.771 270.6 600.438 274.6C596.971 277.267 592.304 279.933 586.438 282.6C580.838 285.267 575.638 286.6 570.838 286.6ZM585.466 443C575.066 443 566.932 440.333 561.066 435C554.932 429.933 551.866 423.267 551.866 415C551.866 406.733 554.266 397.4 559.066 387C563.599 376.867 569.732 366.867 577.466 357C586.532 345.267 597.999 334.467 611.866 324.6C625.732 314.733 640.799 306.6 657.066 300.2C673.599 294.067 690.532 290.2 707.866 288.6C708.932 283.533 709.466 278.733 709.466 274.2C709.466 270.467 708.932 267.133 707.866 264.2C707.066 261.267 705.466 258.733 703.066 256.6C701.199 254.733 698.799 253.267 695.866 252.2C692.932 251.133 689.199 250.6 684.666 250.6C678.799 250.6 670.799 252.067 660.666 255C659.332 256.333 658.132 257.667 657.066 259C655.999 260.333 655.199 261.267 654.666 261.8C653.066 263.4 651.466 264.2 649.866 264.2C647.999 264.2 646.266 263.533 644.666 262.2C643.066 260.6 642.266 258.867 642.266 257C642.266 255.667 642.932 254.067 644.266 252.2C647.199 248.733 653.466 242.467 663.066 233.4C672.666 224.333 683.066 213.933 694.266 202.2L705.066 191C696.266 190.2 688.666 188.467 682.266 185.8C676.132 182.867 668.399 181.4 659.066 181.4C655.866 181.4 654.266 183 654.266 186.2C654.266 188.6 655.066 191.4 656.666 194.6C658.266 197.8 659.599 199.933 660.666 201C661.732 202.067 662.266 203.133 662.266 204.2C662.266 205.533 661.332 206.867 659.466 208.2C657.599 209.267 655.599 209.8 653.466 209.8C651.066 209.8 649.199 209.133 647.866 207.8C645.732 205.667 643.866 202.6 642.266 198.6C640.666 194.333 639.866 190.2 639.866 186.2C639.866 181.133 641.199 176.733 643.866 173C646.799 169.267 651.866 167.4 659.066 167.4C665.732 167.4 671.332 168.067 675.866 169.4C680.399 170.733 684.932 172.2 689.466 173.8C693.999 175.4 699.332 176.6 705.466 177.4C708.399 177.667 711.332 177.667 714.266 177.4C717.199 176.867 719.999 175.933 722.666 174.6C725.866 171.4 728.799 168.733 731.466 166.6C734.132 164.467 735.999 163.267 737.066 163H738.666C740.799 163 742.399 163.667 743.466 165C744.532 166.333 745.066 167.8 745.066 169.4C745.066 171.8 744.266 173.8 742.666 175.4C738.932 180.2 734.666 183.933 729.866 186.6L676.266 239.4C680.799 238.6 684.932 238.2 688.666 238.2C693.999 238.2 698.666 239 702.666 240.6C706.932 241.933 710.399 243.8 713.066 246.2C717.066 249.667 719.866 253.8 721.466 258.6C723.332 263.4 724.266 268.467 724.266 273.8C724.266 278.333 723.732 283.133 722.666 288.2C726.666 288.2 730.932 288.867 735.466 290.2C738.666 291 740.266 293 740.266 296.2C740.266 298.333 739.332 300.333 737.466 302.2C735.866 304.067 733.732 304.6 731.066 303.8C729.199 303.267 727.332 302.867 725.466 302.6C723.599 302.333 721.599 302.2 719.466 302.2C719.199 302.2 718.932 302.2 718.666 302.2C714.666 313.933 709.199 326.2 702.266 339C695.599 352.067 687.732 364.733 678.666 377C669.599 389.267 659.866 400.333 649.466 410.2C639.066 420.333 628.399 428.333 617.466 434.2C606.532 440.067 595.866 443 585.466 443ZM567.466 413C567.466 417.533 568.932 421.267 571.866 424.2C574.799 427.133 579.999 428.6 587.466 428.6C596.266 428.6 605.199 425.8 614.266 420.2C623.599 414.6 632.799 407.133 641.866 397.8C650.932 388.733 659.466 378.6 667.466 367.4C675.466 356.2 682.532 345 688.666 333.8C694.799 322.6 699.599 312.333 703.066 303C688.399 304.867 673.866 308.6 659.466 314.2C645.332 319.8 632.266 326.867 620.266 335.4C608.266 344.2 598.132 354.067 589.866 365C587.466 368.2 584.532 372.6 581.066 378.2C577.332 383.8 574.132 389.667 571.466 395.8C568.799 401.933 567.466 407.667 567.466 413ZM713.2 443C702.8 443 694.667 440.333 688.8 435C682.667 429.933 679.6 423.267 679.6 415C679.6 406.733 682 397.4 686.8 387C691.333 376.867 697.467 366.867 705.2 357C714.267 345.267 725.733 334.467 739.6 324.6C753.467 314.733 768.533 306.6 784.8 300.2C801.333 294.067 818.267 290.2 835.6 288.6C836.667 283.533 837.2 278.733 837.2 274.2C837.2 270.467 836.667 267.133 835.6 264.2C834.8 261.267 833.2 258.733 830.8 256.6C828.933 254.733 826.533 253.267 823.6 252.2C820.667 251.133 816.933 250.6 812.4 250.6C806.533 250.6 798.533 252.067 788.4 255C787.067 256.333 785.867 257.667 784.8 259C783.733 260.333 782.933 261.267 782.4 261.8C780.8 263.4 779.2 264.2 777.6 264.2C775.733 264.2 774 263.533 772.4 262.2C770.8 260.6 770 258.867 770 257C770 255.667 770.667 254.067 772 252.2C774.933 248.733 781.2 242.467 790.8 233.4C800.4 224.333 810.8 213.933 822 202.2L832.8 191C824 190.2 816.4 188.467 810 185.8C803.867 182.867 796.133 181.4 786.8 181.4C783.6 181.4 782 183 782 186.2C782 188.6 782.8 191.4 784.4 194.6C786 197.8 787.333 199.933 788.4 201C789.467 202.067 790 203.133 790 204.2C790 205.533 789.067 206.867 787.2 208.2C785.333 209.267 783.333 209.8 781.2 209.8C778.8 209.8 776.933 209.133 775.6 207.8C773.467 205.667 771.6 202.6 770 198.6C768.4 194.333 767.6 190.2 767.6 186.2C767.6 181.133 768.933 176.733 771.6 173C774.533 169.267 779.6 167.4 786.8 167.4C793.467 167.4 799.067 168.067 803.6 169.4C808.133 170.733 812.667 172.2 817.2 173.8C821.733 175.4 827.067 176.6 833.2 177.4C836.133 177.667 839.067 177.667 842 177.4C844.933 176.867 847.733 175.933 850.4 174.6C853.6 171.4 856.533 168.733 859.2 166.6C861.867 164.467 863.733 163.267 864.8 163H866.4C868.533 163 870.133 163.667 871.2 165C872.267 166.333 872.8 167.8 872.8 169.4C872.8 171.8 872 173.8 870.4 175.4C866.667 180.2 862.4 183.933 857.6 186.6L804 239.4C808.533 238.6 812.667 238.2 816.4 238.2C821.733 238.2 826.4 239 830.4 240.6C834.667 241.933 838.133 243.8 840.8 246.2C844.8 249.667 847.6 253.8 849.2 258.6C851.067 263.4 852 268.467 852 273.8C852 278.333 851.467 283.133 850.4 288.2C854.4 288.2 858.667 288.867 863.2 290.2C866.4 291 868 293 868 296.2C868 298.333 867.067 300.333 865.2 302.2C863.6 304.067 861.467 304.6 858.8 303.8C856.933 303.267 855.067 302.867 853.2 302.6C851.333 302.333 849.333 302.2 847.2 302.2C846.933 302.2 846.667 302.2 846.4 302.2C842.4 313.933 836.933 326.2 830 339C823.333 352.067 815.467 364.733 806.4 377C797.333 389.267 787.6 400.333 777.2 410.2C766.8 420.333 756.133 428.333 745.2 434.2C734.267 440.067 723.6 443 713.2 443ZM695.2 413C695.2 417.533 696.667 421.267 699.6 424.2C702.533 427.133 707.733 428.6 715.2 428.6C724 428.6 732.933 425.8 742 420.2C751.333 414.6 760.533 407.133 769.6 397.8C778.667 388.733 787.2 378.6 795.2 367.4C803.2 356.2 810.267 345 816.4 333.8C822.533 322.6 827.333 312.333 830.8 303C816.133 304.867 801.6 308.6 787.2 314.2C773.067 319.8 760 326.867 748 335.4C736 344.2 725.867 354.067 717.6 365C715.2 368.2 712.267 372.6 708.8 378.2C705.067 383.8 701.867 389.667 699.2 395.8C696.533 401.933 695.2 407.667 695.2 413ZM890.134 293C882.668 293 877.068 290.867 873.334 286.6C869.868 282.067 868.134 276.467 868.134 269.8C868.134 262.333 870.268 253.667 874.534 243.8C879.068 233.667 884.934 223.267 892.134 212.6C899.334 201.933 907.201 192.067 915.734 183C924.534 173.667 933.334 166.2 942.134 160.6C950.934 154.733 959.068 151.8 966.534 151.8C971.601 151.8 976.534 152.6 981.334 154.2C986.134 155.533 990.001 158.333 992.934 162.6C996.134 166.867 997.734 173.133 997.734 181.4C997.734 184.333 996.934 186.467 995.334 187.8C993.734 189.133 992.268 189.8 990.934 189.8C988.001 189.8 986.534 188.733 986.534 186.6C985.201 178.067 982.401 172.467 978.134 169.8C974.134 167.133 970.268 165.8 966.534 165.8C961.201 165.8 954.934 168.467 947.734 173.8C940.534 179.133 933.201 185.933 925.734 194.2C918.268 202.467 911.201 211.4 904.534 221C898.134 230.333 892.934 239.4 888.934 248.2C884.934 256.733 882.934 263.8 882.934 269.4C882.934 272.067 883.334 274.467 884.134 276.6C885.201 278.733 886.801 279.8 888.934 279.8C892.934 279.8 898.134 277.667 904.534 273.4C910.934 269.133 917.734 263.667 924.934 257C932.401 250.067 939.734 242.867 946.934 235.4C954.134 227.933 960.668 220.867 966.534 214.2C972.401 207.533 976.934 202.2 980.134 198.2C981.734 195.8 983.734 194.6 986.134 194.6C988.001 194.6 989.734 195.267 991.334 196.6C992.934 197.933 993.734 199.667 993.734 201.8C993.734 202.867 993.334 204.067 992.534 205.4C990.668 208.333 988.401 212.467 985.734 217.8C983.334 223.133 980.801 228.867 978.134 235C975.734 241.133 973.601 246.867 971.734 252.2C970.134 257.267 969.334 261.133 969.334 263.8C969.334 266.467 970.268 267.8 972.134 267.8C973.468 267.8 975.068 267.133 976.934 265.8C979.068 264.467 980.934 263.267 982.534 262.2C988.934 256.867 995.068 251.267 1000.93 245.4C1006.8 239.267 1012.13 233.533 1016.93 228.2C1018 226.867 1019.33 226.2 1020.93 226.2C1022.27 226.2 1023.47 227 1024.53 228.6C1025.87 229.933 1026.53 231.667 1026.53 233.8C1026.53 236.2 1025.87 238.2 1024.53 239.8C1020.27 245.4 1014.67 251.667 1007.73 258.6C1000.8 265.267 994.668 270.6 989.334 274.6C985.868 277 981.734 279.4 976.934 281.8C972.401 283.933 968.001 285 963.734 285C960.534 285 957.868 284.067 955.734 282.2C953.601 280.067 952.534 276.467 952.534 271.4C952.534 267.4 953.201 262.867 954.534 257.8C955.868 252.733 957.468 247.533 959.334 242.2C951.868 250.2 943.868 258.067 935.334 265.8C926.801 273.533 918.534 280.067 910.534 285.4C902.801 290.467 896.001 293 890.134 293ZM1082.53 288.6C1077.73 288.6 1073.73 287.267 1070.53 284.6C1067.59 281.933 1066.13 278.2 1066.13 273.4C1066.13 263.267 1068.66 253.133 1073.73 243C1078.79 232.6 1084.53 222.467 1090.93 212.6C1097.59 202.467 1103.06 193.133 1107.33 184.6C1103.06 187.533 1098.26 189.667 1092.93 191C1087.59 192.333 1082.39 193 1077.33 193C1070.13 193 1064.53 192.067 1060.53 190.2C1055.46 199 1049.59 207.933 1042.93 217C1036.26 225.8 1029.73 233.8 1023.33 241C1017.19 248.2 1011.99 253.667 1007.73 257.4C1005.86 259 1003.99 259.8 1002.13 259.8C1000.26 259.8 998.661 259.133 997.328 257.8C995.995 256.467 995.328 255 995.328 253.4C995.328 252.067 995.861 250.867 996.928 249.8C1001.73 244.733 1007.33 238.2 1013.73 230.2C1020.39 222.2 1026.93 213.667 1033.33 204.6C1039.99 195.533 1045.46 187.133 1049.73 179.4C1049.46 174.067 1050.13 168.067 1051.73 161.4C1053.59 154.733 1055.99 148.333 1058.93 142.2C1062.13 136.067 1065.59 131 1069.33 127C1073.06 122.733 1076.93 120.6 1080.93 120.6C1085.19 120.6 1087.33 123.133 1087.33 128.2C1087.33 132.467 1085.99 137.933 1083.33 144.6C1080.93 151.267 1077.99 157.8 1074.53 164.2C1071.33 170.333 1068.53 175.4 1066.13 179.4C1069.59 180.467 1073.19 181 1076.93 181C1083.33 181 1088.93 179.8 1093.73 177.4C1098.53 174.733 1102.79 172.2 1106.53 169.8C1110.26 167.133 1113.46 165.8 1116.13 165.8C1119.59 165.8 1121.86 166.733 1122.93 168.6C1124.26 170.2 1124.93 172.333 1124.93 175C1124.93 180.067 1123.59 185.667 1120.93 191.8C1118.26 197.667 1116.26 201.4 1114.93 203C1113.06 205.933 1110.26 210.333 1106.53 216.2C1102.79 221.8 1099.06 227.8 1095.33 234.2C1091.59 240.6 1088.53 246.733 1086.13 252.6C1085.06 255.533 1083.99 258.6 1082.93 261.8C1082.13 264.733 1081.73 267.267 1081.73 269.4C1081.73 272.867 1083.19 274.6 1086.13 274.6C1088.79 274.6 1092.66 273.267 1097.73 270.6C1104.13 267.133 1109.99 262.733 1115.33 257.4C1120.93 251.8 1125.73 247 1129.73 243C1129.99 242.733 1131.19 241.4 1133.33 239C1135.73 236.6 1137.99 234.2 1140.13 231.8C1142.53 229.4 1143.73 228.2 1143.73 228.2C1144.79 226.867 1146.13 226.2 1147.73 226.2C1149.06 226.2 1150.26 227 1151.33 228.6C1152.66 229.933 1153.33 231.667 1153.33 233.8C1153.33 236.2 1152.66 238.2 1151.33 239.8C1147.33 245.4 1141.86 251.533 1134.93 258.2C1127.99 264.867 1121.86 270.333 1116.53 274.6C1110.93 278.867 1105.19 282.333 1099.33 285C1093.73 287.4 1088.13 288.6 1082.53 288.6ZM1220.27 166.6C1217.07 166.6 1214.14 165.533 1211.47 163.4C1209.07 161 1207.87 158.067 1207.87 154.6C1207.87 150.867 1209.07 147.8 1211.47 145.4C1213.87 143 1216.81 141.8 1220.27 141.8C1224.01 141.8 1227.07 143 1229.47 145.4C1231.87 147.8 1233.07 150.867 1233.07 154.6C1233.07 158.067 1231.74 161 1229.07 163.4C1226.67 165.533 1223.74 166.6 1220.27 166.6ZM1161.07 286.6C1157.61 286.6 1154.81 285.667 1152.67 283.8C1150.54 281.667 1149.47 278.333 1149.47 273.8C1149.47 268.2 1150.81 261.4 1153.47 253.4C1156.14 245.133 1159.61 236.733 1163.87 228.2C1168.14 219.4 1172.67 211.4 1177.47 204.2C1182.54 196.733 1187.34 190.867 1191.87 186.6C1193.74 184.733 1196.01 183.8 1198.67 183.8C1200.81 183.8 1202.67 184.333 1204.27 185.4C1205.87 186.467 1206.67 187.8 1206.67 189.4C1206.67 190.733 1206.01 192.067 1204.67 193.4C1202.81 195.267 1200.41 198.333 1197.47 202.6C1194.81 206.6 1192.14 210.867 1189.47 215.4C1186.81 219.667 1184.81 223.267 1183.47 226.2C1181.07 231.267 1178.41 237 1175.47 243.4C1172.54 249.8 1170.41 255 1169.07 259C1168.27 261.667 1167.87 263.667 1167.87 265C1167.87 267.933 1168.94 269.4 1171.07 269.4C1172.94 269.4 1175.07 268.6 1177.47 267C1179.87 265.133 1182.01 263.533 1183.87 262.2C1190.54 256.867 1196.67 251.267 1202.27 245.4C1208.14 239.267 1213.47 233.533 1218.27 228.2C1219.34 226.867 1220.67 226.2 1222.27 226.2C1223.61 226.2 1224.81 227 1225.87 228.6C1227.21 229.933 1227.87 231.667 1227.87 233.8C1227.87 236.2 1227.21 238.2 1225.87 239.8C1221.87 245.4 1216.27 251.667 1209.07 258.6C1202.14 265.267 1196.01 270.6 1190.67 274.6C1187.21 277.267 1182.54 279.933 1176.67 282.6C1171.07 285.267 1165.87 286.6 1161.07 286.6ZM1235.3 297.8C1226.23 297.8 1219.83 295.267 1216.1 290.2C1212.37 284.867 1210.5 278.333 1210.5 270.6C1210.5 264.2 1211.43 257.267 1213.3 249.8C1215.43 242.067 1218.1 234.467 1221.3 227C1221.57 216.6 1224.37 206.333 1229.7 196.2C1235.3 186.067 1242.77 177.667 1252.1 171C1261.7 164.333 1272.9 161 1285.7 161C1298.23 161 1306.9 164.6 1311.7 171.8C1316.77 179 1319.3 187.533 1319.3 197.4C1319.3 203.267 1318.63 209.267 1317.3 215.4C1315.97 221.267 1314.23 226.867 1312.1 232.2C1309.97 237.533 1307.3 243 1304.1 248.6C1300.9 253.933 1297.3 259.267 1293.3 264.6C1301.3 263.267 1308.23 260.733 1314.1 257C1320.23 253 1326.37 247.533 1332.5 240.6C1338.63 233.667 1345.83 224.867 1354.1 214.2C1355.7 212.333 1357.43 211.4 1359.3 211.4C1361.43 211.4 1363.17 212.067 1364.5 213.4C1366.1 214.733 1366.9 216.467 1366.9 218.6C1366.9 220.2 1366.37 221.667 1365.3 223C1357.57 233.667 1349.7 243.267 1341.7 251.8C1333.97 260.333 1325.17 267 1315.3 271.8C1305.43 276.6 1293.57 279 1279.7 279C1273.3 284.6 1266.37 289.133 1258.9 292.6C1251.43 296.067 1243.57 297.8 1235.3 297.8ZM1258.5 194.2C1255.3 196.6 1251.43 201.4 1246.9 208.6C1242.37 215.8 1238.23 223.667 1234.5 232.2C1235.03 240.467 1238.37 247.933 1244.5 254.6C1250.9 261 1260.63 264.6 1273.7 265.4C1283.3 256.067 1291.03 245.133 1296.9 232.6C1302.77 219.8 1305.7 208.333 1305.7 198.2C1305.7 191.267 1304.1 185.667 1300.9 181.4C1297.7 177.133 1292.63 175 1285.7 175C1280.9 175 1276.23 175.8 1271.7 177.4C1267.17 179 1263.03 181.133 1259.3 183.8C1260.63 185.133 1261.3 186.733 1261.3 188.6C1261.3 190.733 1260.37 192.6 1258.5 194.2ZM1224.5 269.8C1224.5 274.067 1225.3 277.533 1226.9 280.2C1228.77 282.6 1231.57 283.8 1235.3 283.8C1243.03 283.8 1250.9 281.4 1258.9 276.6C1251.17 274.733 1244.63 271.8 1239.3 267.8C1233.97 263.533 1229.83 258.733 1226.9 253.4C1225.3 259.8 1224.5 265.267 1224.5 269.8Z" fill="#CC3833"/>
<ellipse cx="1435" cy="244" rx="25" ry="23" fill="#CC3833"/>
<ellipse cx="61" cy="244" rx="25" ry="23" fill="#CC3833"/>
</svg>
